# xmcd
#
# Track frame offsets: 
#        182
#        23127
#        40172
#        59592
#        74312
#        93465
#        115957
#        135622
#        154187
#        171135
#
# Disc length: 2532 seconds
#
# Revision: 4
# Processed by: cddbd v1.5.1PL0 Copyright (c) Steve Scherf et al.
# Submitted via: ExactAudioCopy v0.95a5
#
DISCID=8709e20a
DTITLE=Delbert McClinton - Delbert McClinton
DYEAR=1993
DGENRE=Country
TTITLE0=The Sun Medley (With Danny Gatton)
TTITLE1=Tell Me About It (Duet With Tanya Tucker)
TTITLE2=Weatherman (From The Motion Picture Ground Hog Day)
TTITLE3=Mary Lou
TTITLE4=Have A Little Faith In Me
TTITLE5=The Wanderer (From The Motion Picture One Hot Summer)
TTITLE6=Just You And Me
TTITLE7=One More Last Chance
TTITLE8=Lay Around And Love On You
TTITLE9=He Will Break Your Heart
EXTD=
EXTT0=
EXTT1=
EXTT2=
EXTT3=
EXTT4=
EXTT5=
EXTT6=
EXTT7=
EXTT8=
EXTT9=
PLAYORDER=
